<svg width="170" height="170" viewBox="0 0 170 170" fill="none" xmlns="http://www.w3.org/2000/svg">
<g id="Highlight_04">
<g id="Group">
<g id="Group_2">
<path id="Vector" fill-rule="evenodd" clip-rule="evenodd" d="M77.5897 13.5485C71.5651 11.2575 65.6254 8.93815 59.5372 6.8239C58.2291 6.36428 56.808 7.05011 56.3554 8.35119C55.8958 9.65934 56.5885 11.0877 57.8896 11.5402C63.9425 13.6474 69.8326 15.9455 75.8147 18.2224C77.1087 18.7103 78.5514 18.0599 79.0393 16.78C79.5272 15.486 78.8837 14.0364 77.5897 13.5485Z" fill="#282828"/>
</g>
<g id="Group_3">
<path id="Vector_2" fill-rule="evenodd" clip-rule="evenodd" d="M86.0536 66.1784C66.9405 73.2141 48.1949 81.2114 29.2444 88.6501C27.9575 89.1592 27.3282 90.6089 27.8302 91.8887C28.3393 93.1757 29.7817 93.8119 31.0757 93.3099C49.9908 85.8782 68.7008 77.8879 87.7786 70.8734C89.0796 70.3925 89.7375 68.9573 89.2637 67.6632C88.7829 66.3622 87.3476 65.7047 86.0536 66.1784Z" fill="#282828"/>
</g>
<g id="Group_4">
<path id="Vector_3" fill-rule="evenodd" clip-rule="evenodd" d="M134.469 121.382C124.379 135.333 114.663 149.589 104.417 163.427C103.604 164.537 103.837 166.099 104.94 166.92C106.05 167.747 107.62 167.506 108.44 166.403C118.693 152.544 128.423 138.275 138.521 124.302C139.327 123.185 139.079 121.622 137.962 120.816C136.838 120.003 135.282 120.258 134.469 121.382Z" fill="#282828"/>
</g>
</g>
</g>
</svg>
