<svg width="22" height="22" viewBox="0 0 22 22" fill="none" xmlns="http://www.w3.org/2000/svg">
<g id="Page 1">
<path id="Fill 2" fill-rule="evenodd" clip-rule="evenodd" d="M14.1758 11.2458L19.9378 6.30676V15.773L14.1758 11.2458ZM8.88888 12.1581L10.5526 13.5847C10.8105 13.8054 11.19 13.8054 11.4478 13.5847L13.1115 12.1581L18.637 16.5004H3.36203L8.88888 12.1581ZM11.0002 12.1574L3.23346 5.50025H18.7669L11.0002 12.1574ZM2.06263 6.30744L7.82461 11.2458L2.06263 15.773V6.30744ZM21.3128 17.1878V4.81275C21.3128 4.42775 20.956 4.12524 20.6253 4.12524H1.37513C1.02725 4.12524 0.687622 4.42362 0.687622 4.81275V17.1878C0.687622 17.5488 1.01556 17.8753 1.37513 17.8753H20.6253C21.0117 17.8753 21.3128 17.5337 21.3128 17.1878Z" fill="#181433"/>
</g>
</svg>
